<?xml version="1.0" encoding="utf-8"?>
<!-- Generator: Adobe Illustrator 25.2.1, SVG Export Plug-In . SVG Version: 6.00 Build 0)  -->
<svg version="1.1" id="logo" xmlns="http://www.w3.org/2000/svg" xmlns:xlink="http://www.w3.org/1999/xlink" x="0px" y="0px"
	 viewBox="0 0 164 46" style="enable-background:new 0 0 164 46;" xml:space="preserve">
<style type="text/css">
	.st0{fill-rule:evenodd;clip-rule:evenodd;fill:#214D63;}
	.st1{fill-rule:evenodd;clip-rule:evenodd;fill:#FCDB02;}
	.st2{fill:#FFFFFF;}
</style>
<path class="st0" d="M52,32.5L34.7,14.9c-1.8,1.4-5.8,4.5-7.9,5.9c-0.7,0.5-1.5,0.7-2.4,0.7c-1.7,0-3.2-0.9-4-2.5
	c-0.5-1-1-3.1,1.2-5.7c2.1-2.6,4.3-5,6.6-7.3c-1.5-1.4-3.2-2.7-4.9-3.9c-4.9-3.3-15.4-2.3-20.6,6c-6.7,10.6,1,20.5,3.9,23.4
	c5.8,5.9,16.5,12,21.1,13.9c4,1.7,5.7-0.5,6.4-2.2C30.3,40.8,22,34.3,21.6,34c-0.2-0.1-0.2-0.4-0.1-0.5c0.1-0.2,0.4-0.2,0.5-0.1
	c0,0,0,0,0,0c0.1,0.1,9.3,7.2,12.8,9.3c1.3,0.2,4.4,0.5,5.6-2.3c-3.8-2.6-12.7-10.1-13.1-10.5c-0.2-0.1-0.2-0.4,0-0.5
	c0.1-0.2,0.4-0.2,0.5,0c0.1,0.1,9.5,8.1,13.2,10.5c2.4,0.2,4.5-1.4,5-3.8c-3.7-2.4-12.3-10-12.7-10.3c-0.2-0.1-0.2-0.4-0.1-0.5
	c0.1-0.2,0.4-0.2,0.5-0.1c0,0,0,0,0,0c0.1,0.1,9.2,8.1,12.7,10.4c1.1,0.1,4.3,0.1,5.6-2.9C52.1,32.6,52,32.6,52,32.5z"/>
<path class="st1" d="M35,14c-1.2,0.9-6.1,4.7-8.5,6.3c-0.6,0.4-1.3,0.6-2,0.6c-1.4,0-2.7-0.8-3.3-2.1c-0.4-0.9-0.8-2.6,1.1-4.9
	c3.5-4.2,7.4-8.7,12.5-12.1c2.1-1.3,4.4-1.9,6.8-1.8C47.5,0,53,3,56.1,7.9c6.7,10.5-0.1,21.1-2.9,24l-0.3,0.3L35,14z"/>
<g>
	<g>
		<path class="st2" d="M63.5,11.6h4.4L75,27.4l-0.3,0.4V11.6h3.4v20.6h-4.4l-7.1-15.5l0.3-0.4v15.9h-3.4V11.6z"/>
		<path class="st2" d="M82.5,31.3c-0.7-0.8-1.1-1.9-1.1-3.4c0-1.5,0.4-2.5,1.2-3.3c0.8-0.7,2-1.1,3.6-1.1h3.4l0.2,3h-3.6
			c-0.5,0-0.9,0.1-1.2,0.3c-0.3,0.2-0.4,0.6-0.4,1.1c0,0.5,0.2,0.8,0.5,1.1c0.3,0.2,0.9,0.3,1.5,0.3c1,0,1.7-0.1,2.1-0.4
			c0.5-0.2,0.7-0.6,0.7-1.1l0.3,2.1c-0.1,0.5-0.3,1-0.7,1.3c-0.4,0.4-0.9,0.6-1.5,0.8c-0.6,0.2-1.2,0.3-1.9,0.3
			C84.3,32.4,83.2,32,82.5,31.3z M89.5,22.9c0-0.7-0.2-1.2-0.6-1.6s-1-0.6-1.8-0.6c-0.5,0-1,0.1-1.5,0.3s-0.9,0.4-1.3,0.8L82,19.4
			c0.5-0.7,1.3-1.2,2.1-1.6c0.9-0.4,1.9-0.6,3-0.6c1.2,0,2.2,0.2,3,0.6c0.8,0.4,1.5,1.1,1.9,1.9c0.4,0.8,0.7,1.8,0.7,3v9.4h-3.3
			V22.9z"/>
		<path class="st2" d="M96.3,11.6h3.6v20.6h-3.6V11.6z M104.1,23.3c0-0.7-0.2-1.3-0.6-1.7c-0.4-0.4-0.9-0.6-1.6-0.6
			c-0.7,0-1.2,0.2-1.5,0.6c-0.4,0.4-0.5,1-0.5,1.7L99.6,20c0.4-0.9,0.9-1.6,1.5-2.1s1.3-0.7,2.2-0.7c1.4,0,2.5,0.5,3.3,1.6
			c0.8,1,1.2,2.5,1.2,4.4v8.9h-3.6V23.3z"/>
		<path class="st2" d="M110.2,17.5h6.6v3.3h-6.6V17.5z M112.4,31.3c-0.6-0.7-0.8-1.6-0.8-2.9V13.2h3.6v14.2c0,0.4,0.1,0.6,0.2,0.8
			s0.3,0.3,0.6,0.3h0.9v3.7h-1.8C113.9,32.2,113,31.9,112.4,31.3z"/>
		<path class="st2" d="M120.4,31.3c-0.7-0.8-1.1-1.9-1.1-3.4c0-1.5,0.4-2.5,1.2-3.3c0.8-0.7,2-1.1,3.6-1.1h3.4l0.2,3h-3.6
			c-0.5,0-0.9,0.1-1.2,0.3c-0.3,0.2-0.4,0.6-0.4,1.1c0,0.5,0.2,0.8,0.5,1.1c0.3,0.2,0.9,0.3,1.5,0.3c1,0,1.7-0.1,2.1-0.4
			c0.5-0.2,0.7-0.6,0.7-1.1l0.3,2.1c-0.1,0.5-0.3,1-0.7,1.3c-0.4,0.4-0.9,0.6-1.5,0.8c-0.6,0.2-1.2,0.3-1.9,0.3
			C122.2,32.4,121.1,32,120.4,31.3z M127.5,22.9c0-0.7-0.2-1.2-0.6-1.6s-1-0.6-1.8-0.6c-0.5,0-1,0.1-1.5,0.3s-0.9,0.4-1.3,0.8
			l-2.2-2.4c0.5-0.7,1.3-1.2,2.1-1.6c0.9-0.4,1.9-0.6,3-0.6c1.2,0,2.2,0.2,3,0.6c0.8,0.4,1.5,1.1,1.9,1.9c0.4,0.8,0.7,1.8,0.7,3v9.4
			h-3.3V22.9z"/>
		<path class="st2" d="M134.3,17.5h3.6v14.7h-3.6V17.5z M142.2,23.7c0-0.9-0.2-1.5-0.6-2c-0.4-0.5-0.9-0.7-1.7-0.7
			c-0.7,0-1.2,0.2-1.5,0.6c-0.4,0.4-0.5,1-0.5,1.7l-0.3-3.3c0.4-0.9,0.9-1.6,1.5-2.1s1.3-0.7,2.1-0.7c1,0,1.8,0.2,2.5,0.8
			s1.2,1.2,1.6,2.2s0.5,2.1,0.5,3.5v8.5h-3.6V23.7z M150.1,23.7c0-0.9-0.2-1.5-0.6-2c-0.4-0.5-0.9-0.7-1.6-0.7
			c-0.7,0-1.2,0.2-1.6,0.7c-0.4,0.4-0.6,1.1-0.6,1.9l-0.7-3.4c0.4-0.9,1-1.7,1.7-2.2c0.7-0.5,1.4-0.8,2.3-0.8c1,0,1.8,0.2,2.5,0.8
			s1.2,1.2,1.6,2.2s0.5,2.1,0.5,3.5v8.5h-3.6V23.7z"/>
	</g>
</g>
</svg>
