<?xml version="1.0" encoding="utf-8"?>
<!-- Generator: Adobe Illustrator 25.2.1, SVG Export Plug-In . SVG Version: 6.00 Build 0)  -->
<svg version="1.1" baseProfile="tiny" id="logo" xmlns="http://www.w3.org/2000/svg" xmlns:xlink="http://www.w3.org/1999/xlink"
	 x="0px" y="0px" viewBox="0 0 164 46" overflow="visible" xml:space="preserve">
<path fill-rule="evenodd" fill="#FFFFFF" d="M52,32.5L34.7,14.9c-1.8,1.4-5.8,4.5-7.9,5.9c-0.7,0.5-1.5,0.7-2.4,0.7
	c-1.7,0-3.2-0.9-4-2.5c-0.5-1-1-3.1,1.2-5.7c2.1-2.6,4.3-5,6.6-7.3c-1.5-1.4-3.2-2.8-4.9-3.9c-4.9-3.3-15.4-2.3-20.6,6
	c-6.7,10.6,1,20.5,3.9,23.4c5.8,5.9,16.5,12,21.1,13.9c4,1.7,5.7-0.5,6.4-2.2c-3.8-2.4-12.1-8.8-12.5-9.1c-0.2-0.1-0.2-0.4-0.1-0.5
	c0.1-0.2,0.4-0.2,0.5-0.1l0,0c0.1,0.1,9.3,7.2,12.8,9.3c1.3,0.2,4.4,0.5,5.6-2.3c-3.8-2.6-12.7-10.1-13.1-10.5
	c-0.2-0.1-0.2-0.4-0.1-0.5c0.1-0.2,0.4-0.2,0.5-0.1c0,0,0,0,0,0c0.1,0.1,9.5,8.1,13.2,10.5c2.4,0.2,4.5-1.4,5-3.8
	c-3.7-2.4-12.3-10-12.7-10.3c-0.2-0.1-0.2-0.4,0-0.5c0.1-0.2,0.4-0.2,0.5,0l0,0c0.1,0.1,9.2,8.1,12.7,10.4c1.1,0.1,4.3,0.1,5.6-2.9
	C52.1,32.6,52,32.6,52,32.5z"/>
<path fill-rule="evenodd" fill="#FCDB02" d="M35,14c-1.2,0.9-6.1,4.7-8.5,6.3c-0.6,0.4-1.3,0.6-2,0.6c-1.4,0-2.7-0.8-3.3-2.1
	c-0.4-0.9-0.8-2.6,1.1-5c3.5-4.3,7.3-8.7,12.5-12.1c2.1-1.3,4.4-1.9,6.8-1.8C47.5,0,53,3,56.1,7.9c6.7,10.5-0.1,21.1-2.9,24
	l-0.3,0.3L35,14z"/>
<g>
	<g>
		<path fill="#FFFFFF" d="M71.4,12.3h3.5l5.6,12l-0.2,0.3V12.3h2.7V28h-3.5l-5.6-11.8l0.2-0.3V28h-2.7V12.3z"/>
		<path fill="#FFFFFF" d="M86.4,27.3c-0.6-0.6-0.9-1.4-0.9-2.6c0-1.1,0.3-1.9,1-2.5c0.6-0.6,1.6-0.8,2.9-0.8h2.7l0.1,2.3h-2.8
			c-0.4,0-0.8,0.1-1,0.3c-0.2,0.2-0.3,0.4-0.3,0.8c0,0.4,0.1,0.6,0.4,0.8c0.3,0.2,0.7,0.3,1.2,0.3c0.8,0,1.3-0.1,1.7-0.3
			c0.4-0.2,0.6-0.5,0.6-0.8l0.2,1.6c0,0.4-0.2,0.7-0.5,1S91,27.8,90.5,28c-0.5,0.1-1,0.2-1.5,0.2C87.8,28.2,87,27.9,86.4,27.3z
			 M92,20.9c0-0.5-0.2-0.9-0.5-1.2c-0.3-0.3-0.8-0.4-1.4-0.4c-0.4,0-0.8,0.1-1.2,0.2c-0.4,0.1-0.7,0.3-1,0.6l-1.8-1.8
			c0.4-0.5,1-0.9,1.7-1.2s1.5-0.4,2.3-0.4c0.9,0,1.7,0.2,2.4,0.5c0.7,0.3,1.2,0.8,1.5,1.4c0.3,0.6,0.5,1.4,0.5,2.2V28H92V20.9z"/>
		<path fill="#FFFFFF" d="M97.4,12.3h2.8V28h-2.8V12.3z M103.6,21.2c0-0.5-0.2-1-0.5-1.3c-0.3-0.3-0.7-0.5-1.3-0.5
			c-0.5,0-0.9,0.2-1.2,0.5c-0.3,0.3-0.4,0.7-0.4,1.3l-0.2-2.5c0.3-0.7,0.7-1.2,1.2-1.6c0.5-0.4,1-0.5,1.7-0.5c1.1,0,2,0.4,2.6,1.2
			c0.6,0.8,0.9,1.9,0.9,3.4V28h-2.8V21.2z"/>
		<path fill="#FFFFFF" d="M108.4,16.8h5.3v2.5h-5.3V16.8z M110.2,27.3c-0.4-0.5-0.7-1.2-0.7-2.2V13.5h2.8v10.8
			c0,0.3,0.1,0.5,0.2,0.6s0.3,0.2,0.5,0.2h0.7v2.8h-1.4C111.3,28.1,110.6,27.8,110.2,27.3z"/>
		<path fill="#FFFFFF" d="M116.5,27.3c-0.6-0.6-0.9-1.4-0.9-2.6c0-1.1,0.3-1.9,1-2.5c0.6-0.6,1.6-0.8,2.9-0.8h2.7l0.1,2.3h-2.8
			c-0.4,0-0.8,0.1-1,0.3c-0.2,0.2-0.3,0.4-0.3,0.8c0,0.4,0.1,0.6,0.4,0.8c0.3,0.2,0.7,0.3,1.2,0.3c0.8,0,1.3-0.1,1.7-0.3
			c0.4-0.2,0.6-0.5,0.6-0.8l0.2,1.6c0,0.4-0.2,0.7-0.5,1s-0.7,0.5-1.2,0.6c-0.5,0.1-1,0.2-1.5,0.2C117.9,28.2,117.1,27.9,116.5,27.3
			z M122.1,20.9c0-0.5-0.2-0.9-0.5-1.2c-0.3-0.3-0.8-0.4-1.4-0.4c-0.4,0-0.8,0.1-1.2,0.2c-0.4,0.1-0.7,0.3-1,0.6l-1.8-1.8
			c0.4-0.5,1-0.9,1.7-1.2s1.5-0.4,2.3-0.4c0.9,0,1.7,0.2,2.4,0.5c0.7,0.3,1.2,0.8,1.5,1.4c0.3,0.6,0.5,1.4,0.5,2.2V28h-2.6V20.9z"/>
		<path fill="#FFFFFF" d="M127.5,16.8h2.8V28h-2.8V16.8z M133.7,21.5c0-0.7-0.2-1.2-0.5-1.5c-0.3-0.4-0.8-0.5-1.3-0.5
			c-0.5,0-0.9,0.2-1.2,0.5c-0.3,0.3-0.4,0.7-0.4,1.3l-0.2-2.5c0.3-0.7,0.7-1.2,1.2-1.6c0.5-0.4,1-0.5,1.7-0.5c0.8,0,1.4,0.2,2,0.6
			s1,0.9,1.2,1.7c0.3,0.7,0.4,1.6,0.4,2.6V28h-2.8V21.5z M140,21.5c0-0.7-0.2-1.2-0.5-1.5c-0.3-0.4-0.7-0.5-1.3-0.5
			c-0.5,0-1,0.2-1.3,0.5c-0.3,0.3-0.4,0.8-0.4,1.5l-0.5-2.6c0.3-0.7,0.8-1.3,1.3-1.6c0.5-0.4,1.1-0.6,1.8-0.6c0.8,0,1.4,0.2,2,0.6
			s1,0.9,1.3,1.7c0.3,0.7,0.4,1.6,0.4,2.6V28H140V21.5z"/>
	</g>
</g>
</svg>
